<svg xmlns="http://www.w3.org/2000/svg" width="406.03" height="852.594" viewBox="0 0 406.03 852.594">
  <defs>
    <style>
      .cls-1 {
        fill: #010101;
        fill-rule: evenodd;
      }
    </style>
  </defs>
  <path id="above_bis" class="cls-1" d="M993,1175c1.21,15.56,4.545,33.2,2,48-2.95,1.59-5.721,2.08-11,2-1.021-.8-0.274-0.35-2-1-10.774-34.62,1.331-73.09-7-107-3.685-15-10.6-29.07-18-41-3.137-5.06-8.233-10.67-10-17v-28c-1.83-8.02-5.031-16.69-7-24V997c-3.034-13.642-3.439-29.56-10-40-8.092-12.877-23.221-15.57-38-22-11.526-5.014-18.731-15.012-28-22-15.982-12.049-40.518-23.1-41-50,2.515-1.96,2.522-3.722,6-5,8.907-6.411,28.189-1.5,35,3,7.125,4.7,12.384,12.057,19,17,13.229,9.884,26.713,16.851,43,24,5.706,2.5,10.02,6.24,18,7,5.62-4.193,11.1-6.174,14-13,4.946-11.628-4.568-25-7-34q-1-10-2-20c-4.828-16.073-14.7-29.66-21-44a382.922,382.922,0,0,1-21-59c-4.579-16.9-5.585-36.589-11-54-6.218-19.993-17.419-38.329-23-60V615c-7.961-36.6,16.971-79.634,31-99,5.9-8.151,15.37-14.6,21-23,5.985-8.93,6.853-20.106,12-30,7.8-15,21.811-25.26,33-37,6.926-7.267,14.7-16.461,20-25,8.8-14.164,8-23.166,27-28,20.91-5.32,42.24,25.529,57,32,25.33,11.106,53.59,18.262,69,39,9.26,12.458,8.82,34.182,13,52,2.14,9.126-.48,16.72,2,25,2.28,7.615,8.22,13.817,12,20,5.81,9.514,10.92,22.8,14,34,3.17,11.527-1.79,25.412-2,36-0.44,22.853-1.69,40.489-6,59-3.42,14.659-1.75,26.174-6,39-7.96,24.013-28.09,40.391-36,64-2.43,7.247-1.27,14.544-4,21-4.92,11.61-13.16,22.62-18,34-4.14,9.736-4.54,19.508-8,30-2.7,8.186-13.24,24.329-7,34,5.71,18.954,26.69,8.4,39,2,11.41-5.936,22.94-12.5,33-20,9.58-7.136,17.39-18.976,30-23,9.4-3,19.49.467,27,2,9.97,15.738-7.04,33.422-18,41-14.38,9.945-26.12,23.811-41,33-15.56,9.611-34.31,9.663-44,25-6.49,10.282-6.85,25.556-10,39v11c-2.55,9.33-5.5,20.23-8,31-1.43,6.13,1.62,14.5,1,19-1.03,7.51-7.55,14.46-11,20a162.786,162.786,0,0,0-16,34q-3,21.495-6,43c1.15,4.03,4.6,9.69,3,17-2.02,9.25.28,18.6-1,25a127.866,127.866,0,0,0-3,26c-0.67.33-1.33,0.67-2,1-3.12,2.57-7.82,1.94-12,1v-2c-2.9-4.69-1.54-29-3-35C1040.19,1172.7,1014.89,1174.89,993,1175Z" transform="translate(-823 -372.406)"/>
</svg>
