<svg xmlns="http://www.w3.org/2000/svg" width="407.31" height="996.747" viewBox="0 0 407.31 996.747">
  <defs>
    <style>
      .cls-1 {
        fill-rule: evenodd;
      }
    </style>
  </defs>
  <path id="above" class="cls-1" d="M1085.11,1175.98c-0.47.48-.94,0.96-1.4,1.44q0.48,10.245.95,20.49c-0.46.48-.93,0.96-1.4,1.43,0.25,0.71.49,1.41,0.74,2.12-0.93,1.42-1.85,2.85-2.78,4.27,0.24,0.71.49,1.41,0.73,2.11-0.09,3.58.17,6.26-2.71,9.94-2.89-.52-5.48.57-8.48,0.1-0.23.24-.47,0.48-0.7,0.71-1.19-1.16-2.39-2.32-3.58-3.49,0.19-1.53-.87-2.37-0.75-3.53,0.47-.47.93-0.95,1.4-1.43l-0.84-10.59c0.46-1.42.91-2.84,1.37-4.26-0.48-.47-0.96-0.93-1.43-1.4,0.2-3.07.39-6.13,0.59-9.2-0.71-.7-1.43-1.4-2.14-2.1,0.23-.23.46-0.47,0.7-0.71-1.74-3.3-8.06-6.58-9.99-6.95-0.7.24-1.41,0.49-2.11,0.73l-2.85-1.38-6.35.78c-0.48-.46-0.96-0.93-1.43-1.39l-6.36.78c-0.47-.47-0.95-0.93-1.43-1.4-1.65.26-3.29,0.51-4.94,0.77l-1.43-1.4q-6,.435-12.01.85c-1.65-.21-3.31-0.43-4.96-0.64-0.47.47-.93,0.95-1.4,1.43l-2.13-.69-0.69.72c-1.19-.22-2.37-0.44-3.55-0.66-0.7.71-1.4,1.43-2.09,2.14q1.44,2.115,2.87,4.21c0.92,2.9,1.14,19.2-.44,21.93,0.48,0.46.96,0.93,1.43,1.4q-0.285,6-.56,12.02c0.25,1.65.51,3.3,0.77,4.94q-2.1,2.16-4.2,4.3c-4.386-1.19-6.7.19-11.359-4.11,0.2-3.07.4-6.13,0.6-9.2q-1.439-2.1-2.879-4.21c-1.531-6.24-.165-13.45-0.238-19.79-0.038-3.37-1.354-5.72.6-9.21-0.477-.46-0.954-0.93-1.431-1.39,0.216-1.65.432-3.31,0.647-4.96-0.477-.47-0.954-0.93-1.431-1.4q0.3-4.59.6-9.2c-0.244-.7-0.488-1.41-0.732-2.11,0.465-.48.931-0.95,1.4-1.43-0.239-.23-0.477-0.47-0.716-0.7,0.466-.48.932-0.95,1.4-1.43-0.238-.23-0.477-0.47-0.715-0.7,0.465-.48.931-0.95,1.4-1.43-0.239-.23-0.477-0.47-0.716-0.7,0.466-.48.932-0.95,1.4-1.43-0.238-.23-0.477-0.47-0.715-0.7l0.681-2.13c-0.477-.46-0.954-0.93-1.431-1.4q0.342-1.065.682-2.13c-0.477-.46-0.954-0.93-1.431-1.39,0.221-1.18.443-2.36,0.664-3.55-0.477-.46-0.954-0.93-1.431-1.39q0.341-1.065.682-2.13c-0.477-.47-0.954-0.93-1.431-1.4,0.216-1.65.432-3.31,0.647-4.96-0.477-.46-0.954-0.93-1.431-1.4q0.333-1.77.665-3.54c-0.477-.46-0.954-0.93-1.431-1.4q0.324-2.475.647-4.95-0.723-1.41-1.448-2.82c0.228-.7.455-1.41,0.682-2.12-0.965-1.88-1.931-3.75-2.9-5.63,0.233-.24.465-0.47,0.7-0.71-0.965-1.88-1.931-3.75-2.9-5.63,0.233-.23.466-0.47,0.7-0.71-0.96-1.4-1.92-2.81-2.88-4.21,0.233-.24.466-0.48,0.7-0.71-0.477-.47-0.954-0.94-1.431-1.4l0.7-.72c-0.716-.7-1.432-1.39-2.147-2.09l0.7-.72c-0.715-.7-1.431-1.4-2.146-2.09l0.7-.72-4.31-5.61c0.233-.23.466-0.47,0.7-0.71-0.954-.93-1.909-1.86-2.863-2.8,0.233-.23.466-0.47,0.7-0.71l-2.862-2.79,0.7-.72-2.862-2.79,0.7-.72-4.31-5.61c0.232-.23.465-0.47,0.7-0.71l-2.147-2.1c0.233-.24.466-0.47,0.7-0.71l-2.164-3.51,0.7-.72c-0.477-.46-0.954-0.93-1.431-1.39q0.2-12.39.41-24.76c-0.477-.47-0.955-0.93-1.432-1.4q0.333-1.77.665-3.54c-0.477-.47-0.954-0.93-1.431-1.4q0.34-1.065.682-2.13-1.083-1.755-2.164-3.51l0.681-2.13c-0.965-1.87-1.93-3.75-2.9-5.62q0.341-1.065.682-2.13l-2.164-3.51q0.341-1.065.682-2.13c-0.483-.94-0.966-1.87-1.448-2.81l0.63-6.372-1.431-1.4q0.341-1.063.682-2.129-0.724-1.405-1.448-2.811,0.324-2.48.647-4.958l-1.431-1.4q0.333-1.773.665-3.544l-1.431-1.4,0.681-2.13-2.163-3.51,0.681-2.129L936.768,954.3l-10.018-9.78q-0.349.359-.7,0.716l-2.147-2.1-0.7.716-4.991-3.476-0.7.715-4.276-2.777-0.7.716-1.431-1.4-0.7.715-2.146-2.1-0.7.715-3.56-2.079-0.7.716-4.276-2.777-0.7.715-7.138-5.571-0.7.715-3.578-3.493q-0.348.359-.7,0.716l-9.3-9.081-0.7.715-10.018-9.78q-0.348.358-.7,0.716l-5.009-4.89-0.7.715-4.293-4.191q-0.349.359-.7,0.716l-4.294-4.192-0.7.716-7.156-6.986c-4.03-7.05-14.516-20.913-10.937-27.448l-0.715-.7q2.443-2.505,4.89-5.009c2.81,0.216,4.9-1.689,7.752-2.215l3.544,0.665c6.035-.128,12.367-1.294,18.4,1.193l2.862,2.795,0.7-.716,2.862,2.794,0.7-.715L877,865.213l0.7-.715,10.018,9.779,0.7-.715,8.586,8.383,0.7-.716L902,885.42l0.7-.715,3.577,3.493,0.7-.716,2.862,2.794,0.7-.715,2.862,2.794,0.7-.715,2.863,2.794q0.348-.358.7-0.716l2.147,2.1,0.7-.716,2.147,2.1,0.7-.715,2.147,2.095,0.7-.715,2.146,2.095,0.7-.715,1.431,1.4,0.7-.716,2.146,2.1,0.7-.715,2.146,2.095,0.7-.715,1.431,1.4,0.7-.716,2.146,2.1,0.7-.716,1.431,1.4,0.7-.716c4.167,1.537,3.431,3.18,7.8,2.028,4.957,0.13,14.129-9.167,13.971-14.311,0.98-1.8,2.333-6.165,2.028-7.8l-2.9-5.623,0.7-.715-1.431-1.4,0.7-.715-1.432-1.4,0.7-.716-1.431-1.4,0.7-.715-1.431-1.4,0.7-.715-1.431-1.4q0.35-.359.7-0.716l-1.431-1.4,0.7-.715-2.164-3.51q0.333-1.771.665-3.544l-1.431-1.4,0.681-2.13q-0.723-1.405-1.448-2.811l0.648-4.958-1.431-1.4,0.681-2.13-1.431-1.4q0.341-1.065.682-2.129l-2.164-3.51,0.7-.716-2.9-5.622,0.7-.716-2.147-2.1,0.7-.715-1.431-1.4q0.35-.359.7-0.716l-2.146-2.1q0.35-.358.7-0.716l-1.431-1.4,0.7-.716L945,815.6l0.7-.715-2.147-2.1,0.7-.715-2.147-2.1,0.7-.716-2.147-2.1q0.349-.359.7-0.716l-2.146-2.1,0.7-.715-2.146-2.1,0.7-.715-3.594-4.907q0.348-.359.7-0.716L933.4,791.7l0.7-.715-1.431-1.4,0.7-.716-2.147-2.1,0.7-.716-2.163-3.51,0.7-.715-2.146-2.1,0.7-.716-1.431-1.4,0.7-.715-2.147-2.1,0.7-.716-1.431-1.4,0.7-.715-2.147-2.1q-4-9.5-8.006-19l0.681-2.13-2.163-3.51,0.681-2.129-1.431-1.4q0.34-1.065.682-2.13l-1.432-1.4q0.342-1.065.682-2.13l-1.431-1.4,0.7-.715-1.449-2.812q0.342-1.063.682-2.129l-1.431-1.4,0.681-2.13-1.431-1.4q0.333-1.771.665-3.544l-1.431-1.4,0.681-2.13-1.431-1.4q0.342-1.065.682-2.129l-1.431-1.4,0.681-2.129-1.431-1.4q0.341-1.065.682-2.13l-2.164-3.51q0.333-1.772.665-3.544l-1.431-1.4,0.681-2.129-1.448-2.812,0.7-.715-1.431-1.4,0.681-2.13Q903.155,687.4,902.43,686l0.7-.716-1.431-1.4,0.7-.715-1.431-1.4,0.7-.715-2.147-2.1q0.341-1.065.682-2.129l-2.147-2.1,0.7-.716q-1.083-1.755-2.164-3.51l0.7-.715-2.88-4.208,0.7-.716-2.147-2.1,0.7-.715-1.431-1.4,0.7-.716-2.146-2.1,0.7-.715-2.163-3.51,0.7-.715-2.147-2.1,0.7-.716-2.9-5.622q0.349-.359.7-0.716l-1.431-1.4,0.7-.715-1.431-1.4,0.7-.715-1.431-1.4,0.7-.716-1.431-1.4,0.7-.715-1.431-1.4,0.7-.715-1.431-1.4,0.681-2.13-2.163-3.51,0.681-2.129-1.431-1.4q0.308-3.893.614-7.786l-1.431-1.4q0.273-6.72.545-13.442l-0.885-14.84,1.4-1.431q-0.375-1.764-.749-3.527l1.4-1.431q-0.367-1.056-.733-2.113l1.4-1.431-0.715-.7q1.038-1.781,2.078-3.561l-0.715-.7L884.017,566l-0.715-.7,3.475-4.991-0.715-.7,2.1-2.147c5.2-12.426,12.009-25.094,18.64-37.7l22.32-25.726-0.716-.7,3.493-3.578-0.715-.7,2.1-2.147-0.715-.7,2.1-2.146-0.715-.7,2.1-2.147-0.716-.7,2.1-2.147-0.716-.7,2.079-3.561-0.716-.7,2.1-2.146-0.716-.7,1.4-1.431-0.716-.7q1.389-2.139,2.777-4.277l-0.715-.7,2.1-2.147-0.715-.7,5.571-7.138-0.715-.7,6.287-6.44c4.39-8.127,15.592-17.394,23.036-25.027l6.985-7.155-0.715-.7,9.763-11.432-0.716-.7,2.794-2.862-0.715-.7L1000,389.94l-0.716-.7q1.377-2.844,2.758-5.69c-0.24-.233-0.47-0.466-0.71-0.7,0.69-1.186,1.38-2.373,2.08-3.56q-0.4-3.177-.79-6.355c0.23-.71.46-1.42,0.68-2.13-0.47-.466-0.95-0.931-1.43-1.4,0.22-1.181.45-2.363,0.67-3.544-0.48-.466-0.96-0.931-1.43-1.4,0.22-.71.45-1.42,0.68-2.13-0.48-.465-0.96-0.931-1.43-1.4,0.22-.71.45-1.42,0.68-2.129-0.48-.466-0.96-0.932-1.433-1.4,0.227-.709.453-1.419,0.683-2.129l-1.432-1.4,0.681-2.13-1.431-1.4,0.681-2.13-1.431-1.4q0.342-1.065.682-2.13l-1.431-1.4,0.7-.715q-0.714-.7-1.431-1.4,0.333-1.773.665-3.544l-1.431-1.4q0.289-5.307.58-10.615-0.384-2.469-.767-4.94c0.772-4.847,4.064-9.335,5.487-14.21-0.24-.232-0.477-0.465-0.716-0.7,0.466-.477.936-0.954,1.4-1.431-0.24-.233-0.48-0.466-0.71-0.7,0.46-.477.93-0.954,1.39-1.431-0.24-.233-0.47-0.466-0.71-0.7,0.46-.477.93-0.955,1.39-1.432-0.23-.232-0.47-0.465-0.71-0.7,0.46-.477.93-0.954,1.4-1.431l-0.72-.7c0.47-.477.93-0.954,1.4-1.431l-0.72-.7c0.69-1.187,1.39-2.374,2.08-3.561-0.24-.233-0.48-0.466-0.71-0.7,0.46-.477.93-0.954,1.39-1.431-0.24-.233-0.47-0.466-0.71-0.7,0.7-.716,1.39-1.432,2.09-2.147-0.24-.233-0.47-0.466-0.71-0.7,0.7-.715,1.39-1.431,2.09-2.146-0.24-.233-0.47-0.466-0.71-0.7q2.085-2.147,4.19-4.293l-0.72-.7,16.77-17.173-0.72-.7q2.1-2.147,4.19-4.294c-0.23-.233-0.47-0.465-0.71-0.7,1.4-1.431,2.79-2.863,4.19-4.294l-0.72-.7,4.89-5.009c-0.23-.233-0.47-0.466-0.71-0.7l2.79-2.862,0.72,0.7c1.16-1.193,2.33-2.385,3.49-3.578l0.72,0.7,2.79-2.863,0.72,0.7c0.7-.715,1.39-1.431,2.09-2.147l0.72,0.7c0.7-.715,1.4-1.431,2.09-2.147l0.72,0.7c0.7-.716,1.4-1.431,2.09-2.147l0.72,0.7,2.1-2.147c0.23,0.233.47,0.466,0.71,0.7q2.82-1.449,5.62-2.9c1.19,0.221,2.37.443,3.55,0.664,0.46-.477.93-0.954,1.4-1.431,0.23,0.233.47,0.466,0.71,0.7l3.53-.75c10.92,1.7,19.48,11,28.53,20.872a12.339,12.339,0,0,0,.04,2.828l-9.78,10.018c-4.18-1.1-8.54.1-12.73,0.153-7.19.086-15.57-1.447-22.61,1.686l-2.79,2.862-0.72-.7q-1.4,1.431-2.79,2.862l-0.72-.7q-2.79,2.862-5.59,5.724c-2.38,1.759-6.99,5.328-9.08,9.3l0.72,0.7q-1.755,1.789-3.49,3.578c0.23,0.233.47,0.466,0.71,0.7-0.7.716-1.4,1.432-2.09,2.147,0.23,0.233.47,0.466,0.71,0.7-0.7.715-1.4,1.431-2.09,2.146,0.23,0.233.47,0.466,0.71,0.7-0.7.715-1.4,1.431-2.09,2.146,0.23,0.233.47,0.466,0.71,0.7-0.46.477-.93,0.954-1.4,1.431l0.72,0.7-2.1,2.146,0.72,0.7c-0.47.477-.93,0.954-1.4,1.431l0.72,0.7-2.1,2.147,0.72,0.7c-0.93,1.425-1.85,2.851-2.78,4.276l0.72,0.7c-0.47.477-.94,0.954-1.4,1.431,0.24,0.233.48,0.465,0.71,0.7-0.92,1.425-1.85,2.851-2.77,4.277,0.24,0.232.47,0.465,0.71,0.7l-1.38,2.845c0.25,0.7.49,1.409,0.74,2.113-0.47.477-.94,0.954-1.4,1.431,0.24,0.233.48,0.466,0.71,0.7-0.21,1.652-.43,3.305-0.64,4.958,0.47,0.465.95,0.931,1.43,1.4-0.22,1.181-.45,2.362-0.67,3.543,0.48,0.466.96,0.932,1.43,1.4-0.22.709-.45,1.419-0.68,2.129,0.72,0.7,1.43,1.4,2.15,2.1-0.23.71-.46,1.42-0.68,2.13,0.71,0.7,1.43,1.4,2.14,2.1l-0.69.716c0.47,0.465.95,0.931,1.43,1.4-0.24.238-.47,0.477-0.7,0.715,0.71,0.7,1.43,1.4,2.14,2.1l-0.69.716c0.95,0.931,1.9,1.863,2.86,2.794,5.12,9.946,20.7,31.434,33.7,38.489q3.21,3.142,6.44,6.287l17.07,8.281c0.23-.239.46-0.477,0.7-0.716,1.18,0.693,2.37,1.386,3.56,2.079,0.23-.239.46-0.477,0.7-0.716,0.47,0.466.95,0.932,1.43,1.4,0.23-.239.46-0.478,0.7-0.716,0.71,0.7,1.43,1.4,2.14,2.1,0.23-.239.47-0.477,0.7-0.716,1.19,0.693,2.37,1.386,3.56,2.079,0.23-.239.47-0.477,0.7-0.716q16.02,8.646,32.03,17.294c3.83,2.052,18.63,18.165,20.05,20.974-0.23.239-.46,0.477-0.7,0.716,0.72,0.7,1.43,1.4,2.15,2.1-0.23.238-.47,0.477-0.7,0.715,0.48,0.466.96,0.932,1.43,1.4-0.22.71-.45,1.42-0.68,2.13,0.48,0.466.96,0.931,1.43,1.4-0.22.71-.45,1.42-0.68,2.13,0.48,0.465.95,0.931,1.43,1.4l-0.66,3.544c0.47,0.465.95,0.931,1.43,1.4-0.22,1.652-.43,3.305-0.65,4.958,0.48,0.465.95,0.931,1.43,1.4l-0.66,3.544c0.47,0.465.95,0.931,1.43,1.4-0.22,1.181-.44,2.362-0.67,3.543,0.48,0.466.96,0.932,1.43,1.4l-0.66,3.543c0.48,0.466.95,0.932,1.43,1.4l-0.66,3.544c0.47,0.466.95,0.932,1.43,1.4l-0.6,9.2c0.48,0.465.96,0.931,1.43,1.4-0.21,1.652-.43,3.3-0.65,4.958l1.44,1.4c-0.23,1.181-.45,2.362-0.67,3.543,0.48,0.466.96,0.932,1.43,1.4l-0.66,3.543c0.47,0.466.95,0.932,1.43,1.4-0.23.71-.46,1.42-0.68,2.13l10.08,15.437q5.07,9.837,10.14,19.678c-0.23.239-.47,0.477-0.7,0.716,0.97,1.874,1.93,3.748,2.9,5.622-0.24.239-.47,0.477-0.7,0.716,0.48,0.465.95,0.931,1.43,1.4-0.23.238-.47,0.477-0.7,0.715,0.48,0.466.96,0.932,1.43,1.4-0.23.239-.46,0.478-0.7,0.716,0.48,0.466.96,0.932,1.43,1.4l-0.69.716c0.47,0.465.95,0.931,1.43,1.4-0.24.238-.47,0.477-0.7,0.715,0.48,0.466.95,0.932,1.43,1.4q0.4,4.59.82,9.183c-0.47.477-.93,0.954-1.4,1.431l0.78,6.355c-0.46.477-.93,0.954-1.39,1.431l0.78,6.355c-0.47.477-.93,0.954-1.4,1.431q0.495,10.955.97,21.91c-0.46.477-.93,0.954-1.39,1.431l0.81,9.184c-0.46.477-.93,0.954-1.39,1.431,0.25,1.647.51,3.294,0.76,4.941-0.46.477-.93,0.954-1.39,1.431,0.24,0.7.48,1.408,0.73,2.112l-1.38,2.846c0.24,0.232.48,0.465,0.71,0.7-0.46.477-.93,0.954-1.39,1.431,0.24,0.7.48,1.409,0.73,2.113-0.47.477-.93,0.954-1.4,1.431l0.75,3.527c-0.46.477-.93,0.954-1.4,1.431l0.75,3.527c-0.46.477-.93,0.954-1.39,1.431l0.75,3.527c-0.47.477-.94,0.954-1.4,1.431,0.24,0.7.49,1.408,0.73,2.112-0.23.239-.46,0.477-0.7,0.716,0.25,0.7.49,1.408,0.74,2.113-0.47.477-.94,0.954-1.4,1.431l0.78,6.355c-0.46.477-.93,0.954-1.4,1.431,0.25,0.7.49,1.408,0.74,2.112-0.47.477-.93,0.955-1.4,1.432,0.24,0.7.49,1.408,0.73,2.112-0.46.477-.93,0.954-1.39,1.431,0.24,0.7.48,1.409,0.73,2.113-0.47.477-.93,0.954-1.4,1.431,0.25,0.7.49,1.409,0.73,2.113-0.69,1.187-1.38,2.374-2.08,3.56,0.25,0.705.49,1.409,0.74,2.113-0.47.477-.93,0.954-1.4,1.431,0.24,0.7.49,1.409,0.73,2.113-0.69,1.187-1.38,2.374-2.08,3.561,0.25,0.7.49,1.408,0.74,2.112-0.47.477-.93,0.954-1.4,1.432l0.72,0.7c-0.47.477-.94,0.954-1.4,1.431,0.24,0.233.47,0.466,0.71,0.7-0.7.715-1.39,1.431-2.09,2.146,0.24,0.233.47,0.466,0.71,0.7-0.46.477-.93,0.954-1.39,1.431,0.23,0.233.47,0.466,0.71,0.7l-4.17,5.707c0.24,0.233.47,0.466,0.71,0.7l-2.79,2.862c0.24,0.233.48,0.466,0.71,0.7q-2.085,2.147-4.19,4.294l0.72,0.7q-1.755,1.789-3.49,3.578c0.23,0.233.47,0.466,0.71,0.7l-2.79,2.863c0.24,0.233.47,0.465,0.71,0.7l-6.27,7.854c0.25,0.7.49,1.409,0.73,2.113q-5.88,9.616-11.79,19.235l0.72,0.7c-0.69,1.187-1.39,2.374-2.08,3.561l0.72,0.7c-0.47.477-.93,0.954-1.4,1.431l0.75,3.527c-0.47.477-.93,0.954-1.4,1.431,0.25,0.7.49,1.408,0.73,2.112-0.46.477-.93,0.954-1.39,1.432,0.24,0.7.49,1.408,0.73,2.112-0.47.477-.93,0.954-1.4,1.431l0.72,0.7c-0.47.477-.93,0.954-1.4,1.431l0.72,0.7-2.1,2.146,0.72,0.7c-0.47.477-.93,0.954-1.4,1.431,0.24,0.233.48,0.465,0.71,0.7q-1.725,2.5-3.47,4.992c0.24,0.233.48,0.466,0.71,0.7-0.46.477-.93,0.954-1.39,1.431,0.24,0.233.47,0.466,0.71,0.7-0.7.716-1.39,1.432-2.09,2.147,0.24,0.233.47,0.466,0.71,0.7-0.7.715-1.39,1.431-2.09,2.146,0.24,0.233.47,0.466,0.71,0.7l-4.17,5.707c0.24,0.233.48,0.466,0.71,0.7l-5.55,8.552c0.24,0.233.48,0.466,0.71,0.7-0.46.477-.93,0.954-1.39,1.431,0.24,0.233.47,0.466,0.71,0.7-0.7.715-1.39,1.431-2.09,2.146,0.24,0.233.47,0.466,0.71,0.7l-2.76,5.69,0.72,0.7c-0.47.477-.93,0.954-1.4,1.431l0.72,0.7-2.76,5.69c0.24,0.7.49,1.408,0.73,2.113-0.47.477-.93,0.954-1.4,1.431l0.72,0.7c-0.47.477-.93,0.954-1.4,1.431l0.72,0.7c-0.47.477-.94,0.954-1.4,1.431,0.24,0.233.48,0.466,0.71,0.7-0.46.476-.93,0.954-1.39,1.431,0.24,0.232.47,0.465,0.71,0.7-0.46.477-.93,0.954-1.39,1.431,0.24,0.7.48,1.409,0.73,2.113-0.47.477-.93,0.954-1.4,1.431l0.72,0.7c-0.47.477-.93,0.954-1.4,1.431l0.72,0.7-2.1,2.147c0.24,0.233.48,0.466,0.71,0.7-0.91,1.9-1.84,3.793-2.76,5.69l0.72,0.7c-0.47.476-.93,0.954-1.4,1.431l0.72,0.7c-0.47.477-.93,0.954-1.4,1.431l0.72,0.7c-0.47.477-.93,0.954-1.4,1.431q-0.645,4.957-1.3,9.916l1.44,1.4-0.69,2.129q2.52,3.153,5.03,6.3c-0.23.238-.47,0.477-0.7,0.715,1.9,1.391,3.81,2.783,5.71,4.174,0.23-.238.46-0.477,0.7-0.715,0.71,0.7,1.43,1.4,2.14,2.1,0.71-.245,1.41-0.489,2.12-0.733l3.54,0.665,2.1-2.147c0.23,0.233.47,0.466,0.71,0.7l3.51-2.164,0.72,0.7c0.7-.715,1.39-1.431,2.09-2.146l0.72,0.7c0.46-.477.93-0.954,1.4-1.431,0.23,0.233.47,0.466,0.71,0.7l2.1-2.147c0.24,0.233.47,0.466,0.71,0.7,0.47-.477.93-0.954,1.4-1.431l0.72,0.7c0.69-.715,1.39-1.431,2.09-2.146,6.95-3.079,14.69-7.217,21.79-10.869q3.51-2.871,7-5.742l0.72,0.7q11.19-10.034,22.39-20.07c5.85-3.292,12.33-7.612,18.28-8.705l6.37,0.631,3.53-.75c0.48,0.466.95,0.931,1.43,1.4l4.94-.766c3.77,0.72,6.88,3.888,10.7,7.65-0.22,1.652-.43,3.305-0.65,4.958l0.72,0.7q-4.5,8.894-8.98,17.787c-3.18,6.042-13.8,12.987-17.5,15.061l-4.89,5.008-0.72-.7-4.89,5.009c-0.23-.233-0.47-0.466-0.71-0.7l-7.68,7.871-0.72-.7-7.68,7.871-0.72-.7c-1.4,1.431-2.79,2.862-4.19,4.293l-0.72-.7-2.79,2.862-0.72-.7-2.79,2.863-0.72-.7c-0.7.716-1.39,1.431-2.09,2.147l-0.72-.7c-0.46.477-.93,0.954-1.4,1.431-0.23-.233-0.47-0.466-0.71-0.7l-2.1,2.146c-0.23-.233-0.47-0.465-0.71-0.7q-2.82,1.447-5.62,2.9l-0.72-.7c-0.47.477-.93,0.955-1.4,1.431-0.24-.232-0.47-0.465-0.71-0.7l-2.1,2.147c-0.24-.233-0.48-0.466-0.71-0.7-0.47.477-.94,0.954-1.4,1.431l-0.72-.7c-1.63,1.2-3.27,2.4-4.9,3.594l-0.72-.7c-0.46.477-.93,0.954-1.4,1.431-0.23-.233-0.47-0.466-0.71-0.7q-5.235,5.367-10.48,10.733-3.435,7.819-6.88,15.641c0.24,0.7.48,1.408,0.73,2.112l-2.76,5.691c0.24,0.7.49,1.408,0.73,2.112-0.46.477-.93,0.955-1.4,1.431l0.75,3.527c-0.46.477-.93,0.954-1.39,1.431,0.25,1.647.51,3.294,0.76,4.941-0.46.477-.93,0.954-1.39,1.431l0.78,6.355c-0.47.477-.93,0.954-1.4,1.431l0.75,3.527c-0.69,1.187-1.38,2.374-2.08,3.564,0.25,0.7.49,1.41,0.74,2.11-0.47.48-.94,0.95-1.4,1.43,0.24,0.23.48,0.47,0.71,0.7-0.46.48-.93,0.95-1.39,1.43,0.24,0.23.47,0.47,0.71,0.7-0.46.48-.93,0.95-1.39,1.43,0.23,0.23.47,0.47,0.71,0.7l-1.4,1.43c0.25,0.7.49,1.41,0.74,2.11-0.7,1.19-1.39,2.38-2.08,3.56,0.24,0.24.47,0.47,0.71,0.7l-1.38,2.85c0.25,0.7.49,1.41,0.74,2.11-0.47.48-.94,0.95-1.4,1.43,0.25,1.18.5,2.35,0.75,3.53-0.47.47-.93,0.95-1.4,1.43q0.48,10.95.97,21.91c-0.46.48-.93,0.95-1.4,1.43,0.24,0.23.48,0.47,0.72,0.7l-1.4,1.43c0.24,0.23.48,0.47,0.72,0.7-0.7.71-1.4,1.43-2.1,2.14,0.24,0.24.48,0.47,0.72,0.7-0.7.72-1.4,1.43-2.1,2.15,0.24,0.23.48,0.47,0.72,0.7l-2.8,2.86c0.24,0.23.48,0.47,0.72,0.7-0.93.95-1.86,1.91-2.8,2.86,0.24,0.23.48,0.47,0.72,0.7-0.93.95-1.86,1.91-2.79,2.86,0.23,0.24.47,0.47,0.71,0.7l-3.49,3.58c0.24,0.23.48,0.46,0.71,0.7-0.69.71-1.39,1.43-2.09,2.14,0.24,0.24.48,0.47,0.71,0.7-1.39,1.9-2.78,3.81-4.17,5.71,0.24,0.23.48,0.47,0.72,0.7-0.7.71-1.4,1.43-2.1,2.14,0.24,0.24.48,0.47,0.72,0.7l-1.4,1.43c0.24,0.24.47,0.47,0.71,0.7l-2.09,2.15c0.24,0.23.47,0.47,0.71,0.7-0.7.71-1.39,1.43-2.09,2.15,0.24,0.23.47,0.46,0.71,0.69q-1.38,2.85-2.76,5.69c0.24,0.24.48,0.47,0.72,0.7-0.47.48-.93,0.96-1.4,1.43,0.24,0.24.48,0.47,0.72,0.7-0.7,1.19-1.39,2.38-2.08,3.56,0.24,0.71.49,1.41,0.73,2.12-0.47.47-.93,0.95-1.4,1.43,0.25,1.17.5,2.35,0.75,3.52-0.46.48-.93,0.96-1.39,1.43,0.25,1.18.5,2.36,0.75,3.53l-1.4,1.43c0.25,1.18.5,2.35,0.75,3.53l-1.4,1.43c0.25,1.18.5,2.35,0.75,3.53-0.47.47-.93,0.95-1.4,1.43,0.25,1.17.5,2.35,0.75,3.53-0.46.47-.93,0.95-1.39,1.43,0.23,0.23.47,0.46,0.71,0.69l-1.38,2.85c0.25,0.7.49,1.41,0.73,2.11l-1.38,2.85c0.48,0.46.96,0.93,1.43,1.39l-0.69.72c0.47,0.47.95,0.93,1.43,1.4-0.24.24-.47,0.47-0.7,0.71l1.43,1.4c-0.23.24-.47,0.48-0.7,0.72,0.48,0.46.96,0.93,1.43,1.39-0.23.71-.45,1.42-0.68,2.13,0.27,3.06.55,6.13,0.82,9.19-0.47.47-.93,0.95-1.4,1.43,0.24,0.23.48,0.46,0.72,0.7C1084.1,1169.86,1082.88,1172.26,1085.11,1175.98Z" transform="translate(-831 -227.813)"/>
</svg>
