<svg xmlns="http://www.w3.org/2000/svg" width="630.122" height="1046" viewBox="0 0 630.122 1046">
  <defs>
    <style>
      .cls-1 {
        fill: #010101;
        fill-rule: evenodd;
      }
    </style>
  </defs>
  <path id="back" class="cls-1" d="M1061,233c29.34-.423,55.91,32.585,69,50,6.16,8.2,24.76,17.365,34,23,14.56,8.878,33.4,11.014,48,20,10.63,6.541,20.74,15.155,31,22,8.66,5.778,17.76,9.865,26,16,7.31,5.439,12.73,14.5,20,20,10.76,8.132,21.8,17.469,29,29,7.82,12.512,9.04,30.007,15,44,3.45,8.093,9.5,16.75,13,25,17.77,41.9,34.65,113.244,20,171-7.49,29.511-16.11,62.511-27,89q-1.995,8.5-4,17c-4.94,11.965-12.46,24.1-16,38-3.09,12.133,2.37,26.619,0,37-5.77,25.285-2.94,53.693-12,75-2.5,5.873-6.8,12.322-9,19-2.4,7.292-2.18,13.526-5,20-3.08,7.065-8.97,14.143-12,21-2.53,5.714-2.49,11.1-5,17-4.08,9.6-12.85,15.34-16,26-3.46,11.74-.98,22.32-4,35-4.79,20.07-14.09,47.64-8,73,1.1,4.56,2.86,11.09,4,16v15c1.3,5.04,5.51,8.66,7,13,2.43,7.08,3.75,34.68,1,42-7.5,19.97-27.09,21.93-47,30-7.47,3.03-15.96,7.55-24,10-7.03,2.14-15.9,1.39-23,3-12.88,2.93-45.59-2-49-9-5.1-5.34-8.07-20.73-5-32,6.33-23.21,8.58-49.42,14-73,2.21-9.6-1.99-16.96-2-27,0-9.18,3.7-33.15,2-36-2.15-6.42-9.53-10.74-12-17-2.67-6.77,2.25-12.89,0-21-1.66-5.97-13.09-37.116-17-39-3.38-3.3-8.1-4.09-15-4-5.02,4.2-10.71,10.59-17,13-5.83,2.23-15.61.43-18,6q-0.495,6.5-1,13c-13,49.03.43,111.84,14,153,4.61,13.99,3.6,27.81,8,41,3.96,11.86,13.32,18.3,14,33-16.95,19.94-38.64,29-76,29H976c-14.77-7.15-24.879-16.22-33-30-1.434-2.43-.5-5.43-2-8l-5-3v-24c-2.169-3.78-.579-10.42-2-15-1.371-4.42-4.551-9.6-6-14q-2-10.5-4-21c-5.324-12.35-14.4-25.3-20-38-5.127-11.63-6.87-23.58-12-36-5.764-13.95-12.468-29.04-17-44-6.225-20.54-.6-48.04-8-68-2.962-7.989-8.141-16.33-11-25-2.812-8.529-2.667-16.288-6-24-4.918-11.38-12.666-23.769-17-35-10.54-27.314-15.765-56.106-27-82-6.216-14.327-15.01-28.93-21-43-8.057-18.924-11.184-37.9-19-57-9.368-22.893-30.455-79.992-23-113q0.5-14,1-28l11-41c5.846-13.413,14.466-26.614,20-40,6.9-16.692,10.213-37.317,19-52,3.3-5.519,9.289-9.851,13-15,30.333-42.086,74.98-71.783,120-99,8.378-5.065,18.847-5.908,27-11,3.777-2.359,6.793-7.07,11-9,7.222-3.313,16.458-2.954,23-7,9.317-5.762,15.45-18.307,22-27q5.5-5,11-10c2.91-3.865,5.2-9.11,9-12,4.67-3.552,10.48-7.652,16-10C1051.1,235.831,1056.79,236,1061,233Z" transform="translate(-741.438 -233)"/>
</svg>
